<svg xmlns="http://www.w3.org/2000/svg" viewBox="0 0 518 518">
  <path class="logo-secondary" d="M435.2 337.5c-1.8-14.2-13.8-24-29.2-23.8-23 .3-42.3 12.2-55 20-5 3.2-9.4 5.5-13 7.2.7-11.7 0-27-6-43.6-7.3-20-17-32.3-24-39.4 8-11.8 19-29 24.3-55.6 4.5-22.7 3-58-7.2-77.8-2-4-5.5-7-10-8-1.7-.6-5-1.6-11.8.3-10-21-13.6-23.2-16.3-25-5.7-3.6-12.3-4.4-18.5-2-8.3 3-15.4 11-22 25l-2.8 6.2c-12.7 1-32.7 5.5-49.6 23.8-2 2.3-6 4-10.4 5.6-8.7 3-12.7 10.3-17.6 23.3-6.8 18 .2 36 7 47.6-9.3 8.4-21.8 21.8-28.4 37.5-8.2 19.5-9 38.5-8.8 48.8-7 7.4-17.8 21.3-19 37-1.6 21.7 6.3 36.5 9.8 42 1 1.5 2 2.8 3.3 4-.5 2.8-.6 5.7 0 8.7 1.3 7 5.7 12.7 12.4 16.3 13.2 7 31.6 10 45.8 3 5 5.3 14.4 10.5 31.3 10.5h1c4.3 0 59-3 74.8-6.8 7-1.7 12-4.7 15.2-7.4 10.2-3 38.4-12.7 65-30 18.8-12 25.3-14.7 39.3-18 13.6-3.4 22-15.8 20.4-29.5zm-23.8 14.7c-16 3.8-24 7.3-44 20.2-30.8 20-64.6 29.3-64.6 29.3s-2.8 4.2-11 6c-14 3.5-66.6 6.4-71.4 6.5-13 0-20.8-3.3-23-8.6-6.7-16 9.6-23 9.6-23s-3.6-2.2-5.7-4.2c-2-2-4-5.7-4.5-4.3-2.5 6.2-3.8 21-10.5 27.8-9.2 9.3-26.6 6.2-37 .8-11.2-6 1-20 1-20s-6.2 3.5-11-4c-4.5-6.7-8.6-18.3-7.5-32.6 1.2-16.3 19.4-32 19.4-32s-3.2-24.2 7.3-49c9.5-22.4 35-40.5 35-40.5s-21.4-23.8-13.4-45.2c5.3-14 7.4-14 9-14.5 6-2.3 12-4.8 16.2-9.5 21.5-23.2 49-18.8 49-18.8s13-39.5 25-31.8c3.6 2.4 17 32 17 32s14-8.3 15.7-5.2c8.5 16.7 9.5 48.6 5.7 68-6.4 32-22.4 49.2-28.8 60-1.6 2.5 17 10.4 29 43 10.8 30 1 55 2.8 58l.4.6s12.5 1 37.6-14.4c13.4-8.3 29.3-17.6 47.4-17.8 17.5-.3 18.4 20.2 5.2 23.4z"/>
</svg>
