<svg width="100" height="17" viewBox="0 0 100 17" xmlns="http://www.w3.org/2000/svg"><path d="M72.141 12.886c0 1.423-.373 2.462-1.125 3.123s-1.899.991-3.447.991c-.565 0-1.74-.107-2.679-.309l.346-1.652c.785.16 1.822.203 2.366.203.862 0 1.477-.171 1.844-.512.368-.341.549-.847.549-1.519v-.341c-.214.101-.494.203-.84.309-.346.101-.747.155-1.197.155-.593 0-1.131-.091-1.619-.272-.489-.181-.911-.448-1.257-.799-.346-.352-.62-.794-.812-1.322-.192-.528-.291-1.471-.291-2.164 0-.65.104-1.466.307-2.009.209-.544.505-1.013.906-1.402.395-.389.878-.687 1.444-.906.565-.218 1.23-.357 1.949-.357.697 0 1.339.085 1.965.187.626.101 1.158.208 1.592.325v8.271zm-5.967-4.114c0 .874.198 1.844.593 2.249.395.405.906.608 1.532.608.34 0 .664-.048.966-.139.302-.091.543-.197.736-.325v-5.175c-.154-.032-.796-.16-1.416-.176-.779-.021-1.372.288-1.79.783-.412.496-.62 1.364-.62 2.174zm16.155 0c0 .703-.104 1.236-.318 1.817-.214.581-.516 1.076-.906 1.487-.39.41-.856.73-1.405.954-.549.224-1.394.352-1.817.352-.423-.005-1.263-.123-1.806-.352-.543-.229-1.01-.544-1.4-.954-.39-.41-.692-.906-.911-1.487-.22-.581-.329-1.114-.329-1.817 0-.703.099-1.38.318-1.956.22-.576.527-1.066.922-1.476.395-.41.867-.725 1.405-.949.543-.224 1.142-.33 1.79-.33.648 0 1.246.112 1.795.33.549.224 1.021.538 1.405.949.39.41.692.901.911 1.476.231.576.346 1.252.346 1.956zm-2.196.005c0-.901-.203-1.652-.598-2.174-.395-.528-.95-.789-1.658-.789s-1.263.261-1.658.789-.587 1.274-.587 2.174c0 .911.198 1.524.593 2.052.395.533.95.794 1.658.794s1.263-.266 1.658-.794c.395-.533.593-1.14.593-2.052zm6.977 4.604c-3.519.016-3.519-2.761-3.519-3.203l-.005-9.848 2.146-.33v9.784c0 .25 0 1.839 1.378 1.844v1.753zm3.782 0h-2.157v-8.996l2.157-.33v9.326zm-1.081-10.312c.719 0 1.306-.565 1.306-1.263s-.582-1.263-1.306-1.263c-.725 0-1.306.565-1.306 1.263s.587 1.263 1.306 1.263zm6.445.991c.708 0 1.306.085 1.79.256.483.171.873.41 1.158.714.285.304.489.719.609 1.156.126.437.187.917.187 1.444v5.361c-.329.069-.829.149-1.499.245-.67.096-1.422.144-2.256.144-.554 0-1.065-.053-1.521-.155-.461-.101-.851-.266-1.18-.496-.324-.229-.576-.522-.763-.885-.181-.362-.274-.874-.274-1.407 0-.512.104-.837.307-1.188.209-.352.489-.639.84-.863.357-.224.763-.384 1.23-.48.467-.096.955-.144 1.46-.144.236 0 .483.016.747.043.263.027.538.075.834.144v-.341c0-.24-.027-.469-.088-.682-.06-.218-.165-.405-.307-.57-.148-.165-.34-.293-.582-.384-.242-.091-.549-.16-.917-.16-.494 0-.944.059-1.356.128-.412.069-.752.149-1.01.24l-.258-1.711c.269-.091.67-.181 1.186-.272.516-.091 1.07-.139 1.663-.139zm.181 7.562c.659 0 1.147-.037 1.488-.101v-2.121c-.121-.032-.291-.069-.516-.101-.225-.032-.472-.053-.747-.053-.236 0-.478.016-.719.053-.242.032-.461.096-.653.187s-.351.218-.467.384c-.121.165-.176.261-.176.512 0 .49.176.773.494.959.324.192.752.282 1.295.282zm-42.389-7.509c.708 0 1.306.085 1.79.256.483.171.873.41 1.158.714.291.309.489.719.609 1.156.126.437.187.917.187 1.444v5.361c-.329.069-.829.149-1.499.245-.67.096-1.422.144-2.256.144-.554 0-1.065-.053-1.521-.155-.461-.101-.851-.266-1.18-.496-.324-.229-.576-.522-.763-.885-.181-.362-.274-.874-.274-1.407 0-.512.104-.837.307-1.188.209-.352.489-.639.84-.863.357-.224.763-.384 1.23-.48.467-.096.955-.144 1.46-.144.236 0 .483.016.747.043.258.027.538.075.834.144v-.341c0-.24-.027-.469-.088-.682-.06-.218-.165-.405-.307-.57-.148-.165-.34-.293-.582-.384-.242-.091-.549-.16-.917-.16-.494 0-.944.059-1.356.128-.412.069-.752.149-1.01.24l-.258-1.711c.269-.091.67-.181 1.186-.272.516-.096 1.07-.139 1.663-.139zm8.887 9.267c-3.519.016-3.519-2.761-3.519-3.203l-.005-9.848 2.146-.33v9.784c0 .25 0 1.839 1.378 1.844v1.753zm-8.701-1.7c.659 0 1.147-.037 1.488-.101v-2.121c-.121-.032-.291-.069-.516-.101-.225-.032-.472-.053-.747-.053-.236 0-.478.016-.719.053-.242.032-.461.096-.653.187s-.351.218-.467.384c-.121.165-.176.261-.176.512 0 .49.176.773.494.959.318.187.752.282 1.295.282zm-49.619-1.621c0 .626-.232 1.117-.695 1.473-.464.356-1.103.534-1.919.534-.815 0-1.483-.124-2.002-.371v-1.088c.329.151.678.27 1.048.356.37.087.714.13 1.033.13.467 0 .811-.087 1.033-.26.222-.173.333-.406.333-.698 0-.263-.102-.486-.306-.669-.204-.183-.625-.4-1.263-.65-.658-.26-1.121-.557-1.391-.891-.27-.334-.404-.735-.404-1.203 0-.587.214-1.049.641-1.386.427-.337 1.001-.505 1.721-.505.69 0 1.378.148 2.062.443l-.375.939c-.641-.263-1.213-.395-1.716-.395-.381 0-.671.081-.868.243-.197.162-.296.376-.296.643 0 .183.039.339.118.469.079.13.209.253.39.368.181.116.506.268.977.457.529.215.917.416 1.164.602.247.186.427.396.543.631.115.234.173.51.173.828zm3.655 2.007c-.848 0-1.512-.241-1.99-.724s-.718-1.148-.718-1.995c0-.87.222-1.553.666-2.051.444-.497 1.054-.746 1.83-.746.72 0 1.289.213 1.706.64.418.427.626 1.014.626 1.762v.611h-3.635c.016.517.159.914.429 1.191.27.278.649.416 1.139.416.322 0 .622-.03.9-.089s.576-.158.895-.296v.919c-.283.132-.569.225-.858.279-.289.055-.62.082-.991.082zm6.851-.096l-.232-.741h-.039c-.263.324-.528.545-.794.662-.266.117-.608.176-1.026.176-.536 0-.954-.141-1.255-.424-.301-.282-.451-.682-.451-1.199 0-.549.209-.963.626-1.242.418-.279 1.054-.432 1.909-.457l.942-.029v-.284c0-.34-.081-.595-.244-.763-.163-.168-.415-.253-.757-.253-.279 0-.547.04-.804.12-.256.08-.503.175-.74.284l-.375-.809c.296-.151.62-.266.972-.344.352-.079.684-.118.996-.118.694 0 1.217.148 1.571.443.353.295.53.759.53 1.391v3.586h-.829zm5.213-5.42c.233 0 .426.016.577.048l-.113 1.054c-.164-.039-.335-.058-.513-.058-.464 0-.839.148-1.127.443-.288.295-.432.679-.432 1.151v2.782h-1.159v-5.324h.907l.153.939h.059c.181-.318.417-.57.708-.756.291-.186.604-.279.94-.279zm3.788 5.517c-.825 0-1.452-.235-1.882-.705-.429-.47-.644-1.145-.644-2.024 0-.895.224-1.584.673-2.065.449-.481 1.097-.722 1.946-.722.575 0 1.093.104 1.554.313l-.35.91c-.49-.186-.894-.279-1.213-.279-.944 0-1.415.611-1.415 1.834 0 .597.118 1.045.353 1.345.235.3.58.45 1.033.45.516 0 1.004-.125 1.465-.375v.987c-.207.119-.428.204-.663.255-.235.051-.52.077-.856.077zm7.6-.096h-1.164v-3.273c0-.411-.085-.717-.254-.919-.169-.202-.438-.303-.806-.303-.487 0-.844.142-1.073.426-.229.284-.343.76-.343 1.427v2.643h-1.159v-7.49h1.159v1.901c0 .305-.02.631-.059.977h.074c.158-.257.377-.456.658-.597.281-.141.609-.212.984-.212 1.322 0 1.983.65 1.983 1.95v3.471zm7.023-5.42c.681 0 1.211.241 1.591.722.38.481.57 1.157.57 2.027 0 .873-.192 1.552-.577 2.039-.385.486-.919.729-1.603.729-.69 0-1.226-.242-1.608-.727h-.079l-.212.631h-.868v-7.49h1.159v1.781l-.02.587-.03.496h.049c.368-.53.911-.794 1.628-.794zm2.678.096h1.263l1.11 3.018c.168.43.279.834.335 1.213h.039c.03-.177.084-.391.163-.643s.496-1.448 1.253-3.589h1.253l-2.333 6.032c-.424 1.107-1.131 1.661-2.121 1.661-.256 0-.506-.027-.75-.082v-.895c.174.039.373.058.597.058.559 0 .952-.316 1.179-.948l.202-.501-2.19-5.324zm-2.979.828c-.467 0-.803.134-1.009.402-.206.268-.312.716-.318 1.345v.077c0 .648.105 1.118.316 1.408.21.29.554.436 1.031.436.411 0 .723-.159.935-.477.212-.318.318-.777.318-1.377 0-1.21-.424-1.815-1.272-1.815zm-25.05 3.726c.421 0 .759-.115 1.014-.344.255-.229.382-.551.382-.965v-.462l-.7.029c-.546.019-.943.108-1.191.267-.248.159-.372.402-.372.729 0 .237.072.421.217.551.145.13.362.195.651.195zm-5.336-3.793c-.368 0-.663.114-.885.342-.222.228-.354.56-.397.996h2.476c-.007-.44-.115-.773-.326-.999-.21-.226-.5-.339-.868-.339z" fill="#fff"/></svg>