<?xml version="1.0" encoding="utf-8"?><svg xmlns="http://www.w3.org/2000/svg" xmlns:xlink="http://www.w3.org/1999/xlink" version="1.1" class="page" pageAlignment="none" x="0px" y="0px" width="1971px" height="420px" viewBox="0 0 1971 420" enable-background="new 0 0 1971 420" xml:space="preserve"><defs><clipPath id="_1474682757329_0_"><path width="2000" height="792" stroke-miterlimit="3" stroke="none" fill="#000" d="M-278.498589,840.000324 L1721.501411,840.000324 L1721.501411,48.00032399999998 L-278.49858900000004,48.00032399999998 L-278.49858900000004,840.000324 Z "/></clipPath></defs><style type="text/css"/><style type="text/css"/><g type="LAYER" name="workspace" id="workspace" locked="true"/><g transform="matrix(1 0 0 1 1.4210854715202004e-14 62.92098962490269)"><title>Exponent</title><g transform="matrix(1.3333333 0 0 -1.3333333 0 1056)" id="g10"><g id="g12"><g id="g14" clip-path="url(#_1474682757329_0_)"><g id="g20"><path id="path22" width="228.00000000000003" height="201.93593600000008" stroke-miterlimit="3" stroke="none" fill="#2d78b8" d="M142.414009,771.525043 C133.970009,784.309043 132.046009,785.975043 114.938009,785.999043 L114.938009,786.000043 C114.874009,786.000043 114.814009,786.000043 114.75000899999999,786.000043 C114.686009,786.000043 114.626009,786.000043 114.56200899999999,786.000043 L114.56200899999999,785.999043 C97.45400899999999,785.975043 95.53000899999999,784.309043 87.08600899999999,771.525043 C79.188009,759.567043 0.7500089999999915,615.904043 0.7500089999999915,611.923043 C0.7500089999999915,606.077043 2.2550089999999914,600.599043 7.668008999999992,592.795043 C13.16800899999999,584.8690429999999 22.63100899999999,580.515043 29.53200899999999,587.502043 C34.18900899999999,592.217043 84.55300899999999,678.863043 108.825009,711.6950429999999 L108.825009,711.6950429999999 C111.740009,715.7490429999999 117.761009,715.7490429999999 120.67500899999999,711.6950429999999 C144.94700899999998,678.863043 195.31100899999998,592.217043 199.968009,587.502043 C206.869009,580.515043 216.333009,584.8690429999999 221.832009,592.795043 C227.246009,600.5990429999999 228.750009,606.077043 228.750009,611.923043 C228.750009,615.904043 150.31300900000002,759.567043 142.41400900000002,771.525043 "/></g><g id="g24"><path id="path26" width="118.822" height="192.34800000000007" stroke-miterlimit="3" stroke="none" fill="#5f656e" d="M324.501411,779.797199 L440.38241100000005,779.797199 L440.38241100000005,750.975199 L358.61841100000004,750.975199 L358.61841100000004,701.858199 L427.734411,701.858199 L427.734411,673.035199 L358.61841100000004,673.035199 L358.61841100000004,616.272199 L443.323411,616.272199 L443.323411,587.449199 L324.501411,587.449199 L324.501411,779.7971990000001 Z "/></g><g id="g28"><path id="path30" width="136.17399999999998" height="144.40800000000002" stroke-miterlimit="3" stroke="none" fill="#5f656e" d="M505.047737,662.932453 L465.378737,726.857453 L502.167737,731.857453 C502.167737,731.857453 526.712737,683.409453 528.533737,680.106453 L557.436737,731.857453 L592.435737,731.857453 L552.995737,662.909453 C551.9297369999999,661.044453 551.964737,658.746453 553.086737,656.915453 L595.6707369999999,591.449453 L558.3917369999999,587.449453 L528.6127369999999,641.5654529999999 C526.4537369999999,637.449453 497.7307369999999,587.449453 497.7307369999999,587.449453 L459.49673699999994,587.449453 L504.87173699999994,656.7774529999999 C506.08473699999996,658.631453 506.1537369999999,661.011453 505.0477369999999,662.9324529999999 "/></g><g id="g32"><path id="path34" width="131.76100000000008" height="227.05100000000016" stroke-miterlimit="3" stroke="none" fill="#5f656e" d="M649.195198,623.922199 C649.195198,623.920199 649.196198,623.917199 649.198198,623.916199 C654.4901980000001,619.405199 659.5861980000001,616.271199 664.4891980000001,614.507199 C669.3861980000001,612.743199 673.996198,611.860199 678.3121980000001,611.860199 C687.9161980000001,611.860199 695.958198,616.023199 702.4281980000001,624.360199 C708.8991980000001,632.691199 712.1341980000001,645.095199 712.1341980000001,661.565199 C712.1341980000001,676.073199 709.6801980000001,687.345199 704.7821980000001,695.387199 C699.8771980000001,703.425199 691.9371980000001,707.446199 680.9581980000002,707.446199 C670.7621980000001,707.446199 660.1721980000002,702.051199 649.1951980000001,691.2701989999999 L649.1951980000001,623.922199 Z M649.1951980000001,508.33619899999997 L649.1951980000001,535.392199 L615.3721980000001,530.392199 L615.3721980000001,731.857199 L643.3131980000002,731.857199 L645.6651980000001,716.563199 L646.8431980000001,716.563199 C652.9171980000001,721.660199 659.6811980000001,726.0711990000001 667.1351980000002,729.7981990000001 C674.5851980000002,733.520199 682.3281980000002,735.3871990000001 690.3711980000002,735.3871990000001 C699.3861980000001,735.3871990000001 707.3781980000001,733.6681990000001 714.3401980000002,730.2401990000001 C721.2981980000002,726.8071990000001 727.2311980000002,721.857199 732.1351980000002,715.3871990000001 C737.0321980000002,708.9171990000001 740.7601980000002,701.1681990000001 743.3111980000002,692.1521990000001 C745.8551980000002,683.1311990000002 747.1331980000002,673.0351990000001 747.1331980000002,661.8591990000001 C747.1331980000002,649.5061990000002 745.4161980000002,638.4771990000002 741.9861980000002,628.7711990000001 C738.5541980000002,619.0661990000001 733.9961980000002,610.9271990000001 728.3111980000002,604.3601990000002 C722.6221980000003,597.7891990000002 716.0541980000003,592.7431990000002 708.6061980000002,589.2141990000002 C701.1511980000001,585.6841990000003 693.4081980000002,583.9191990000003 685.3701980000002,583.9191990000003 C679.0931980000001,583.9191990000003 672.8201980000002,585.2931990000003 666.5471980000002,588.0371990000003 C660.2701980000002,590.7801990000004 654.1951980000002,594.7001990000003 648.3131980000002,599.8011990000003 L649.1951980000001,508.3361990000003 Z "/></g><g id="g36"><path id="path38" width="137.35000000000002" height="151.46699999999998" stroke-miterlimit="3" stroke="none" fill="#5f656e" d="M802.130074,659.506245 C802.130074,644.9942450000001 805.117074,633.376245 811.101074,624.6542450000001 C817.0800740000001,615.9272450000001 825.366074,611.5662450000001 835.953074,611.5662450000001 C846.5420740000001,611.5662450000001 854.873074,615.9272450000001 860.952074,624.6542450000001 C867.0280740000001,633.376245 870.0710740000001,644.9942450000001 870.0710740000001,659.506245 C870.0710740000001,674.212245 867.0280740000001,685.926245 860.952074,694.652245 C854.8730740000001,703.374245 846.5420740000001,707.740245 835.953074,707.740245 C825.366074,707.740245 817.080074,703.374245 811.101074,694.652245 C805.117074,685.926245 802.130074,674.2122449999999 802.130074,659.506245 M767.4260740000001,659.506245 C767.4260740000001,671.464245 769.2870740000001,682.152245 773.0150740000001,691.564245 C776.7370740000001,700.9762450000001 781.7860740000001,708.917245 788.1600740000001,715.387245 C794.5300740000001,721.857245 801.8370740000001,726.807245 810.0720740000002,730.240245 C818.3060740000002,733.668245 826.9330740000001,735.387245 835.9530740000001,735.387245 C844.9700740000002,735.387245 853.6450740000001,733.668245 861.9830740000001,730.240245 C870.3140740000001,726.807245 877.6170740000001,721.8572449999999 883.894074,715.387245 C890.1660740000001,708.917245 895.217074,700.9762450000001 899.040074,691.564245 C902.863074,682.152245 904.776074,671.464245 904.776074,659.506245 C904.776074,647.544245 902.863074,636.8602450000001 899.040074,627.448245 C895.217074,618.036245 890.166074,610.0952450000001 883.894074,603.6252450000001 C877.617074,597.155245 870.314074,592.251245 861.983074,588.919245 C853.645074,585.588245 844.970074,583.920245 835.953074,583.920245 C826.933074,583.920245 818.306074,585.588245 810.072074,588.919245 C801.837074,592.251245 794.530074,597.155245 788.160074,603.6252450000001 C781.786074,610.0952450000001 776.737074,618.036245 773.015074,627.448245 C769.2870740000001,636.8602450000001 767.426074,647.544245 767.426074,659.506245 "/></g><g id="g40"><path id="path42" width="123.23400000000004" height="147.9380000000001" stroke-miterlimit="3" stroke="none" fill="#5f656e" d="M930.950142,731.857746 L958.8911420000001,731.857746 L961.244142,712.445746 L962.420142,712.445746 C968.8911420000001,718.718746 975.9001420000001,724.109746 983.449142,728.621746 C990.9961420000001,733.1297460000001 999.773142,735.386746 1009.773142,735.386746 C1025.259142,735.386746 1036.537142,730.4327460000001 1043.5951420000001,720.5337460000001 C1050.654142,710.630746 1054.184142,696.462746 1054.184142,678.035746 L1054.184142,587.448746 L1020.3611420000001,587.448746 L1020.3611420000001,673.623746 C1020.3611420000001,685.580746 1018.5961420000001,694.013746 1015.0661420000001,698.916746 C1011.5381420000001,703.815746 1005.7521420000002,706.2697459999999 997.7141420000002,706.2697459999999 C991.4371420000001,706.2697459999999 985.8991420000001,704.748746 981.0971420000002,701.711746 C976.2901420000002,698.6687459999999 970.8491420000001,694.211746 964.7731420000002,688.3287459999999 L964.7731420000002,587.4487459999999 L930.9501420000003,587.4487459999999 L930.9501420000003,731.8577459999999 Z "/></g><g id="g44"><path id="path46" width="126.1740000000002" height="151.46699999999998" stroke-miterlimit="3" stroke="none" fill="#5f656e" d="M1175.648628,672.446735 C1175.649628,672.446735 1175.6506279999999,672.447735 1175.6506279999999,672.4487349999999 C1175.6506279999999,684.014735 1173.2466279999999,693.034735 1168.444628,699.505735 C1163.636628,705.975735 1156.2376279999999,709.210735 1146.239628,709.210735 C1137.608628,709.210735 1130.063628,706.122735 1123.592628,699.946735 C1117.122628,693.770735 1113.1016280000001,684.603735 1111.534628,672.449735 C1111.5336280000001,672.4477350000001 1111.535628,672.446735 1111.536628,672.446735 L1175.6486280000001,672.446735 Z M1078.8876280000002,659.505735 C1078.8876280000002,671.270735 1080.7486280000003,681.8587349999999 1084.4766280000001,691.270735 C1088.198628,700.6817349999999 1093.151628,708.6227349999999 1099.3286280000002,715.092735 C1105.5036280000002,721.563735 1112.6096280000002,726.563735 1120.6516280000003,730.092735 C1128.6876280000004,733.621735 1136.9236280000002,735.3867349999999 1145.3566280000002,735.3867349999999 C1155.1576280000002,735.3867349999999 1163.7846280000003,733.7187349999999 1171.2396280000003,730.3867349999999 C1178.6866280000002,727.0507349999999 1184.9136280000002,722.3447349999999 1189.9146280000002,716.269735 C1194.9146280000002,710.1897349999999 1198.6876280000001,702.933735 1201.2376280000003,694.504735 C1203.7836280000004,686.072735 1205.0616280000004,676.858735 1205.0616280000004,666.858735 C1205.0616280000004,660.192735 1204.5696280000004,654.898735 1203.5916280000004,650.979735 C1203.5916280000004,650.977735 1203.5906280000004,650.976735 1203.5886280000004,650.976735 L1111.8286280000004,650.9777349999999 C1113.3946280000005,637.8387349999999 1117.9546280000004,627.741735 1125.5046280000004,620.683735 C1133.0506280000004,613.624735 1142.7096280000003,610.095735 1154.4746280000004,610.095735 C1160.7476280000003,610.095735 1166.5776280000005,611.023735 1171.9746280000004,612.889735 C1177.3636280000003,614.750735 1182.7076280000003,617.346735 1188.0016280000004,620.682735 C1188.0026280000004,620.683735 1188.0026280000004,620.683735 1188.0026280000004,620.682735 L1199.4726280000004,599.507735 C1192.6086280000004,594.994735 1184.9596280000005,591.272735 1176.5326280000004,588.331735 C1168.0996280000004,585.390735 1159.2766280000003,583.919735 1150.0626280000004,583.919735 C1140.0616280000004,583.919735 1130.7476280000003,585.6377349999999 1122.1226280000003,589.066735 C1113.4916280000002,592.494735 1105.9456280000004,597.4487349999999 1099.4746280000004,603.919735 C1093.0036280000004,610.389735 1087.9546280000004,618.2807349999999 1084.3286280000004,627.5947349999999 C1080.6986280000003,636.9057349999999 1078.8876280000004,647.544735 1078.8876280000004,659.505735 "/></g><g id="g48"><path id="path50" width="123.23400000000038" height="147.9380000000001" stroke-miterlimit="3" stroke="none" fill="#5f656e" d="M1232.996895,731.857746 L1260.937895,731.857746 L1263.292895,712.445746 L1264.466895,712.445746 C1270.937895,718.718746 1277.946895,724.109746 1285.496895,728.621746 C1293.042895,733.1297460000001 1301.819895,735.386746 1311.820895,735.386746 C1327.3078950000001,735.386746 1338.583895,730.4327460000001 1345.6438950000002,720.5337460000001 C1352.7008950000002,710.630746 1356.2308950000001,696.462746 1356.2308950000001,678.035746 L1356.2308950000001,587.448746 L1322.407895,587.448746 L1322.407895,673.623746 C1322.407895,685.580746 1320.6438950000002,694.013746 1317.113895,698.916746 C1313.584895,703.815746 1307.7998949999999,706.2697459999999 1299.760895,706.2697459999999 C1293.4848949999998,706.2697459999999 1287.9468949999998,704.748746 1283.144895,701.711746 C1278.336895,698.6687459999999 1272.8968949999999,694.211746 1266.8198949999999,688.3287459999999 L1266.8198949999999,587.4487459999999 L1232.9968949999998,587.4487459999999 L1232.9968949999998,731.8577459999999 Z "/></g><g id="g52"><path id="path54" width="95.88199999999983" height="187.34900000000016" stroke-miterlimit="3" stroke="none" fill="#5f656e" d="M1402.699409,705.093342 L1382.111409,705.093342 L1382.111409,730.387342 L1399.516409,731.532342 C1402.375409,731.720342 1404.683409,733.941342 1404.981409,736.790342 L1404.581409,767.268342 L1436.818409,771.268342 L1436.818409,731.857342 L1473.581409,731.857342 L1473.581409,705.093342 L1436.818409,705.093342 L1436.818409,636.271342 C1436.818409,619.406342 1443.5824089999999,610.978342 1457.110409,610.978342 C1459.657409,610.978342 1462.2564089999998,611.272342 1464.905409,611.860342 C1467.550409,612.4483419999999 1469.951409,613.229342 1472.1114089999999,614.2133419999999 L1477.993409,589.2143419999999 C1474.067409,587.8393419999999 1469.609409,586.6173419999999 1464.609409,585.5373419999999 C1459.6114089999999,584.4623419999998 1454.2664089999998,583.9193419999998 1448.5824089999999,583.9193419999998 C1440.1494089999999,583.9193419999998 1433.0384089999998,585.1973419999998 1427.2594089999998,587.7433419999998 C1421.4724089999997,590.2883419999997 1416.7674089999998,593.8693419999997 1413.139409,598.4783419999998 C1409.5094089999998,603.0833419999998 1406.8644089999998,608.5743419999998 1405.2014089999998,614.9483419999998 C1403.5324089999997,621.3173419999998 1402.6994089999998,628.4273419999998 1402.6994089999998,636.2713419999998 L1402.6994089999998,705.0933419999998 Z "/></g></g></g></g></g></svg>