<svg xmlns="http://www.w3.org/2000/svg" viewBox="0 0 389.31 75.38"><title>facebook</title><path d="M30.46 11.82c-4.58 0-5.91 2-5.91 6.52v7.44h12.22l-1.22 12h-11v36.48H9.88V37.79H0v-12h9.88v-7.25C9.88 6.42 14.77 0 28.42 0A69 69 0 0 1 37 .51v11.31zm7.33 36.67c0-13.55 6.42-23.74 19.86-23.74 7.33 0 11.82 3.77 14 8.46v-7.44h14.02v48.49H71.61v-7.33c-2 4.69-6.62 8.35-14 8.35-13.45 0-19.86-10.19-19.86-23.73zm14.67 3.26c0 7.23 2.65 12 9.47 12 6 0 9.07-4.38 9.07-11.31v-4.87c0-6.93-3.06-11.31-9.07-11.31-6.83 0-9.47 4.79-9.47 12zm63.76-27c5.7 0 11.1 1.22 14.06 3.26L127 38.4a23.09 23.09 0 0 0-9.78-2.24c-7.95 0-11.41 4.58-11.41 12.43v2.85c0 7.84 3.46 12.43 11.41 12.43a23.08 23.08 0 0 0 9.78-2.24L130.28 72c-3 2-8.35 3.26-14.06 3.26C99 75.28 91.16 66 91.16 51.14V48.9c0-14.9 7.84-24.15 25.06-24.15zm15.99 27.1v-4.28c0-13.75 7.84-22.82 23.84-22.82 15.08 0 21.7 9.17 21.7 22.61v7.74h-30.87c.31 6.62 3.26 9.58 11.41 9.58a41.67 41.67 0 0 0 15.59-3l2.65 10.08c-3.87 2-11.82 3.57-18.85 3.57-18.54.05-25.47-9.22-25.47-23.48zm14.67-6.32h17.73v-1.22c0-5.3-2.14-9.47-8.56-9.47-6.62 0-9.17 4.16-9.17 10.7zm85.26 6.02c0 13.55-6.52 23.73-20 23.73-7.33 0-12.43-3.67-14.46-8.35v7.33h-13.82V1.43L198.53.1v32.4c2.14-4.28 6.83-7.74 13.65-7.74 13.45 0 20 10.19 20 23.74zm-14.67-3.36c0-6.83-2.65-11.92-9.68-11.92-6 0-9.27 4.28-9.27 11.21v5.09c0 6.93 3.26 11.21 9.27 11.21 7 0 9.68-5.09 9.68-11.92zM237 51.24v-2.45c0-14 7.95-24 24.14-24s24.14 10.08 24.14 24v2.44c0 14-7.95 24-24.14 24S237 65.2 237 51.24zm33.62-3.46c0-6.42-2.65-11.51-9.47-11.51s-9.47 5.09-9.47 11.51v4.48c0 6.42 2.65 11.51 9.47 11.51s9.47-5.09 9.47-11.51zm19.58 3.46v-2.45c0-14 7.95-24 24.14-24s24.14 10.08 24.14 24v2.44c0 14-7.95 24-24.14 24S290.2 65.2 290.2 51.24zm33.62-3.46c0-6.42-2.65-11.51-9.47-11.51s-9.47 5.09-9.47 11.51v4.48c0 6.42 2.65 11.51 9.47 11.51s9.47-5.09 9.47-11.51zm34.83 1.12l14.47-23.12h15.58l-15.18 23.93 15.79 24.55h-15.58l-15.08-23.73v23.73H344V1.43L358.65.1z" fill="#4767ab"/></svg>