<svg id="Layer_1" xmlns="http://www.w3.org/2000/svg" viewBox="0 0 180 72"><style>.st0{fill:#00aec5}</style><path d="M80.8 29v22.3h-7.4V29h-6.1v-6.3H87V29zM90.3 22.7h7.4v28.6h-7.4zM111.3 22.7V45h8.9v6.3h-16.3V22.7zM131.6 45h1.7c1.9 0 3.4-.3 4.5-1 1.4-.8 2.4-2 3-3.6.4-1.1.7-2.2.7-3.4 0-2.2-.7-4.1-2.1-5.6-.8-1-1.8-1.6-2.9-1.9-.9-.3-2-.4-3.2-.4h-1.7V45zm-7.5 6.3V22.7h11c3.6 0 6.7 1.3 9.4 3.8 1.5 1.4 2.7 3.1 3.5 5 .8 1.8 1.1 3.6 1.1 5.5 0 2.7-.8 5.2-2.3 7.7-1.5 2.4-3.5 4.2-6 5.3-1.8.9-3.8 1.3-5.8 1.3h-10.9zM169.7 29h-8.9v4.7h8.4V40h-8.4v5h8.9v6.3h-16.3V22.7h16.3zM41.9 38.3l-3.1-6-6 3.1-3.1-5.9-5.9 3.1-5.9 3.1 3.1 5.9 5.9-3.1 3.1 6 5.9-3.1z"/><path class="st0" d="M49.2 44c0 3.1-1.2 5.7-3.5 7.1-1 .6-11.5 6.7-12.3 7.2-2.3 1.3-5.2 1-7.9-.5-1.1-.6-10.6-6.1-11.5-6.6-2.3-1.4-3.5-4-3.5-7.1v-6.3-6.3c0-3.1 1.2-5.7 3.5-7.1 1.9-1.1 10.2-5.9 15.9-9.2 5.7 3.3 14 8.1 15.9 9.2 2.3 1.4 3.5 4 3.5 7.1v6.3c-.1 2.6-.1 4.9-.1 6.2M51 19.5C49.1 18.4 29.9 7.3 29.9 7.3S10.7 18.4 8.7 19.5c-3.7 2.2-5 5.1-5 9.2v17.8c0 4.1 1.3 7.1 5 9.2.7.4 15 8.7 15.7 9.1 3.6 2 6.8 2.4 10.5.3.9-.5 15.5-9 16.1-9.4 3.7-2.2 5-5.1 5-9.2V28.7c0-4.1-1.3-7-5-9.2"/></svg>