<?xml version="1.0" encoding="utf-8"?>
<!-- Generator: Adobe Illustrator 19.1.0, SVG Export Plug-In . SVG Version: 6.00 Build 0)  -->
<svg version="1.1" id="Layer_1" xmlns="http://www.w3.org/2000/svg" xmlns:xlink="http://www.w3.org/1999/xlink" x="0px" y="0px"
	 viewBox="0 0 180 72" style="enable-background:new 0 0 180 72;" xml:space="preserve">
<style type="text/css">
	.st0{fill:#00AEC5;}
</style>
<g>
	<polygon points="80.8,29 80.8,51.3 73.4,51.3 73.4,29 67.3,29 67.3,22.7 87,22.7 87,29 	"/>
	<rect x="90.3" y="22.7" width="7.4" height="28.6"/>
	<polygon points="111.3,22.7 111.3,45 120.2,45 120.2,51.3 103.9,51.3 103.9,22.7 	"/>
	<g>
		<path d="M131.6,45h1.7c1.9,0,3.4-0.3,4.5-1c1.4-0.8,2.4-2,3-3.6c0.4-1.1,0.7-2.2,0.7-3.4c0-2.2-0.7-4.1-2.1-5.6
			c-0.8-1-1.8-1.6-2.9-1.9c-0.9-0.3-2-0.4-3.2-0.4h-1.7V45z M124.1,51.3V22.7h11c3.6,0,6.7,1.3,9.4,3.8c1.5,1.4,2.7,3.1,3.5,5
			c0.8,1.8,1.1,3.6,1.1,5.5c0,2.7-0.8,5.2-2.3,7.7c-1.5,2.4-3.5,4.2-6,5.3c-1.8,0.9-3.8,1.3-5.8,1.3H124.1z"/>
	</g>
	<polygon points="169.7,29 160.8,29 160.8,33.7 169.2,33.7 169.2,40 160.8,40 160.8,45 169.7,45 169.7,51.3 153.4,51.3 153.4,22.7 
		169.7,22.7 	"/>
	<polygon points="41.9,38.3 38.8,32.3 32.8,35.4 29.7,29.5 23.8,32.6 17.9,35.7 21,41.6 26.9,38.5 30,44.5 35.9,41.4 	"/>
	<g>
		<path class="st0" d="M49.2,44c0,3.1-1.2,5.7-3.5,7.1c-1,0.6-11.5,6.7-12.3,7.2c-2.3,1.3-5.2,1-7.9-0.5c-1.1-0.6-10.6-6.1-11.5-6.6
			c-2.3-1.4-3.5-4-3.5-7.1c0-1.2,0-3.6,0-6.3c0-2.8,0-5.1,0-6.3c0-3.1,1.2-5.7,3.5-7.1c1.9-1.1,10.2-5.9,15.9-9.2l0,0l0,0
			c5.7,3.3,14,8.1,15.9,9.2c2.3,1.4,3.5,4,3.5,7.1c0,1.2,0,3.6,0,6.3C49.2,40.4,49.2,42.7,49.2,44 M51,19.5
			C49.1,18.4,29.9,7.3,29.9,7.3c0,0-19.2,11.1-21.2,12.2c-3.7,2.2-5,5.1-5,9.2v8.9v8.9c0,4.1,1.3,7.1,5,9.2c0.7,0.4,15,8.7,15.7,9.1
			c3.6,2,6.8,2.4,10.5,0.3c0.9-0.5,15.5-9,16.1-9.4c3.7-2.2,5-5.1,5-9.2v-8.9v-8.9C56,24.6,54.7,21.7,51,19.5"/>
	</g>
</g>
</svg>
